<mxfile host="app.diagrams.net" modified="2023-06-19T18:39:25.489Z" agent="Mozilla/5.0 (Windows NT 10.0; Win64; x64) AppleWebKit/537.36 (KHTML, like Gecko) Chrome/114.0.0.0 Safari/537.36" etag="cNKINyjZbH-WVomlsI3i" version="21.4.0" type="device">
  <diagram name="Page-1" id="MWUzluzARX3PrwIHiW9I">
    <mxGraphModel dx="1221" dy="743" grid="1" gridSize="10" guides="1" tooltips="1" connect="1" arrows="1" fold="1" page="1" pageScale="1" pageWidth="827" pageHeight="1169" math="0" shadow="0">
      <root>
        <mxCell id="0" />
        <mxCell id="1" parent="0" />
        <mxCell id="59bbf4USzHjIY9X18o-x-9" style="edgeStyle=orthogonalEdgeStyle;rounded=0;orthogonalLoop=1;jettySize=auto;html=1;entryX=0.353;entryY=0.01;entryDx=0;entryDy=0;entryPerimeter=0;" edge="1" parent="1" source="59bbf4USzHjIY9X18o-x-1" target="59bbf4USzHjIY9X18o-x-4">
          <mxGeometry relative="1" as="geometry" />
        </mxCell>
        <mxCell id="59bbf4USzHjIY9X18o-x-11" style="edgeStyle=orthogonalEdgeStyle;rounded=0;orthogonalLoop=1;jettySize=auto;html=1;entryX=1;entryY=0;entryDx=0;entryDy=0;" edge="1" parent="1" source="59bbf4USzHjIY9X18o-x-1" target="59bbf4USzHjIY9X18o-x-3">
          <mxGeometry relative="1" as="geometry">
            <Array as="points">
              <mxPoint x="220" y="180" />
              <mxPoint x="220" y="255" />
            </Array>
          </mxGeometry>
        </mxCell>
        <mxCell id="59bbf4USzHjIY9X18o-x-1" value="B" style="ellipse;whiteSpace=wrap;html=1;" vertex="1" parent="1">
          <mxGeometry x="440" y="130" width="120" height="100" as="geometry" />
        </mxCell>
        <mxCell id="59bbf4USzHjIY9X18o-x-2" value="A" style="ellipse;whiteSpace=wrap;html=1;" vertex="1" parent="1">
          <mxGeometry x="80" y="30" width="120" height="100" as="geometry" />
        </mxCell>
        <mxCell id="59bbf4USzHjIY9X18o-x-3" value="E" style="ellipse;whiteSpace=wrap;html=1;" vertex="1" parent="1">
          <mxGeometry x="150" y="240" width="120" height="100" as="geometry" />
        </mxCell>
        <mxCell id="59bbf4USzHjIY9X18o-x-10" style="edgeStyle=orthogonalEdgeStyle;rounded=0;orthogonalLoop=1;jettySize=auto;html=1;exitX=0;exitY=0.5;exitDx=0;exitDy=0;" edge="1" parent="1" source="59bbf4USzHjIY9X18o-x-4" target="59bbf4USzHjIY9X18o-x-3">
          <mxGeometry relative="1" as="geometry" />
        </mxCell>
        <mxCell id="59bbf4USzHjIY9X18o-x-4" value="C" style="ellipse;whiteSpace=wrap;html=1;" vertex="1" parent="1">
          <mxGeometry x="530" y="330" width="120" height="100" as="geometry" />
        </mxCell>
        <mxCell id="59bbf4USzHjIY9X18o-x-12" style="edgeStyle=orthogonalEdgeStyle;rounded=0;orthogonalLoop=1;jettySize=auto;html=1;entryX=0;entryY=1;entryDx=0;entryDy=0;" edge="1" parent="1" source="59bbf4USzHjIY9X18o-x-5" target="59bbf4USzHjIY9X18o-x-3">
          <mxGeometry relative="1" as="geometry" />
        </mxCell>
        <mxCell id="59bbf4USzHjIY9X18o-x-13" style="edgeStyle=orthogonalEdgeStyle;rounded=0;orthogonalLoop=1;jettySize=auto;html=1;" edge="1" parent="1" source="59bbf4USzHjIY9X18o-x-5" target="59bbf4USzHjIY9X18o-x-4">
          <mxGeometry relative="1" as="geometry" />
        </mxCell>
        <mxCell id="59bbf4USzHjIY9X18o-x-5" value="D" style="ellipse;whiteSpace=wrap;html=1;" vertex="1" parent="1">
          <mxGeometry x="230" y="470" width="120" height="100" as="geometry" />
        </mxCell>
      </root>
    </mxGraphModel>
  </diagram>
</mxfile>
